<?xml version="1.0" encoding="UTF-8"?>
<svg fill="none" height="12" viewBox="0 0 116 12" xmlns="http://www.w3.org/2000/svg">
<path d="m6.3273 0h-6.3273v12h6.3273v-1.7143h2.1091v-2.5714h-2.1091v-0.85715h-2.1091v-2.5714h2.1091v-0.85715h2.1091v-1.7143h-2.1091v-1.7143zm8.4363 0h-6.3272v0.85714h2.1091v1.7143h2.109v2.5714h-2.109v6h-2.1091v0.8571h4.2181v-6h2.1091v-6zm2.1091 0h2.1091v9.4286h-2.1091v2.5714h-2.1091v-3.4286h2.1091v-8.5714zm4.2182 0h2.1091v0.85714h2.1091v-0.85714h12.654v0.85714h-4.2181v1.7143h-2.1091v-0.85714h-4.2182v0.85714h4.2182v0.85714h2.109v0.85714h-4.2181v-0.85714h-4.2182v-0.85714h-2.1092v2.5714h2.1091v1.7143h-2.1091v1.7143h2.1091v0.85714h-2.1091v0.85713h6.3274v-1.7143h-4.2182v-0.85714h6.3273v-2.5714h4.2181v-0.85715h4.2182v-0.85714h2.1091v3.4286h-6.3273v0.85715h2.1091v0.85714h-2.1091v0.85714h-2.1091v0.85713h-2.1091v0.8572h4.2182v0.8571h-8.4364v-0.8571h-2.1091v0.8571h-4.2182v-9.4286h1e-4v-2.5714zm12.655 2.5714h4.2181v0.85714h-4.2181v-0.85714zm-8.4364 2.5714v-0.85715h2.1091v0.85715h-2.1091zm2.1091 0h2.1091v0.85714h-2.1091v-0.85714zm12.654-4.2857v-0.85714h2.1091v2.5714h-2.1091v-0.85714h-2.1091v-0.85714h2.1091zm12.655 6h2.1091v-2.5714h-4.2182v-0.85715h4.2182v-0.85714h-4.2182v-1.7143h-2.1091v-0.85714h-4.2182v2.5714h-2.1091v0.85714h2.1091v0.85715h4.2182v1.7143h-2.1091v0.85715h-4.2182v0.85714h-2.1091v0.85714h2.1091v0.85715h-4.2182v0.85712h2.1091v0.8572h2.1091v0.8571h2.1091v-0.8571h-2.1091v-1.7143h2.1091v-0.85715h2.1091v0.85715h4.2182v1.7143h-2.1091v-0.8572h-2.1091v1.7143h4.2182v-0.8571h4.2182v-0.8572h-2.1091v-1.7143h-4.2182v-0.85714h-2.1091v-0.85714h2.1091v-0.85715h4.2182v0.85715zm0 0v0.85714h-2.1091v-0.85714h2.1091zm-8.4364 1.7143h-2.1091v-0.85714h2.1091v0.85714zm8.4364-7.7143v0.85714h2.1091v-0.85714h-2.1091zm8.4363-0.85714h-4.2182v12h2.1091v-2.5714h2.1091v-0.85715h4.2182v2.5715h-4.2182v0.8571h6.3273v-1.7143h4.2182v-0.85712h2.1091v-1.7143h-2.1091v-0.85714h6.3273v-0.85715h2.109v-0.85714h-4.2181v-0.85714h2.1091v-0.85715h2.109v-0.85714h-2.109v-0.85714h2.1091v0.85714h2.1091v0.85714h-2.1091v0.85715h2.1091v2.5714h-4.2182v0.85715h4.2182v-0.85715h2.109v-0.85714h4.2182v0.85714h2.1091v-1.7143h-6.3273v-0.85714h2.1091v-0.85715h-2.1091v-0.85714h4.2182v-0.85714h2.1091v-0.85714h-2.1091v-0.85714h-2.1091v0.85714h-2.1091v0.85714h-2.1091v-1.7143h-6.3272v0.85714h2.1091v0.85714h-4.2182v-1.7143h-2.1091v0.85714h-4.2182v1.7143h2.1091v0.85714h-4.2182v0.85715h4.2182v0.85714h-2.1091v2.5714h4.2182v0.85714h-6.3273v-0.85714h-6.3273v-0.85714h2.1091v-1.7143h-2.1091v-0.85714h2.1091v-0.85715h2.1091v-0.85714h2.1091v-0.85714h-4.2182v0.85714h-2.1091v-1.7143h2.1091v-0.85714zm14.764 4.2857v-1.7143h-4.2182v2.5714h2.1091v-0.85714h2.1091zm-12.655 0.85714h2.1091v0.85714h-2.1091v-0.85714zm8.4364 6.8571v-0.8571h2.1091v0.8571h-2.1091zm10.545-2.5714v1.7143h-8.4363v-0.8572h2.1091v-0.85712h2.1091v-0.85715h-2.1091v-0.85714h4.2181v1.7143h2.1091zm4.2182-1.7143v2.5714h-2.1091v-0.85712h-2.1091v-1.7143h4.2182zm0 0v-0.85714h2.1091v0.85714h-2.1091zm0 3.4286v0.8571h4.2182v-1.7143h-2.1091v0.8572h-2.1091zm21.091-11.143h-6.328v0.85714h2.109v1.7143h2.11v2.5714h-2.11v6h-2.109v0.8571h4.219v-6h2.109v-6zm2.109 0h2.109v9.4286h-2.109v2.5714h-2.109v-3.4286h2.109v-8.5714zm6.327 0h-2.109v12h2.109v-12zm-16.873 10.286h2.1087v-2.5714h-2.1087v-0.85714h-2.1091v-2.5714h2.1091v-0.85715h2.1087v-1.7143h-2.1087v-1.7143h-6.3273v12h6.3273v-1.7143z" clip-rule="evenodd" fill="#1E1E2E" fill-rule="evenodd"/>
</svg>
