<?xml version="1.0" encoding="UTF-8"?>
<svg fill="none" viewBox="0 0 60 116" xmlns="http://www.w3.org/2000/svg">
<path d="m-2.7657e-7 109.67 2.7657e-7 6.327h60v-6.327h-8.5714v-2.109h-12.857v2.109h-4.2857v2.109h-12.857v-2.109h-4.2857v-2.109h-8.5715v2.109h-8.5714zm-3.6877e-7 -8.437 2.7657e-7 6.328h4.2857v-2.109h8.5714v-2.11h12.857v2.11h30v2.109h4.2857v-4.219h-30v-2.109h-30zm-9.2191e-8 -2.1087-9.2191e-8 -2.1091h47.143v2.1091h12.857v2.1087h-17.143v-2.1087h-42.857zm-1.8438e-7 -4.2182-9.2187e-8 -2.1091h4.2857v-2.1091h-4.2857l-5.5315e-7 -12.654h4.2857v4.2181h8.5714v2.1091h-4.2857v4.2182h4.2857v6.3273h-12.857zm17.143-12.655h-4.2858v-4.2181h4.2858v4.2181zm0 0h4.2857v4.2182h-4.2857v4.2182h-4.2858v-6.3273h4.2858v-2.1091zm42.857 12.655h-47.143v-2.1091h12.857v-2.1091h8.5714v2.1091h8.5714v-2.1091h4.2858v2.1091h4.2857v-6.3273h-8.5715v4.2182h-4.2857v-6.3273h-12.857v-4.2181h-4.2857v-4.2182h-4.2857v-2.1091h17.143v6.3273h4.2857v-2.1091h4.2857v2.1091h4.2858v2.109h4.2857v2.1091h4.2857v-4.2181h4.2857v8.4363h-4.2857v2.1091h4.2857v4.2182zm-25.714-25.309v4.2182h4.2857v2.1091h4.2857v-2.1091h4.2858v4.2182h4.2857v-2.1091h4.2857v-2.1091h4.2857v-2.1091h-4.2857v2.1091h-8.5714v-2.1091h-4.2858v-2.1091h4.2858v-4.2182h8.5714v2.1091h-4.2857v2.1091h8.5714v-4.2182h-4.2857v-4.2182h-4.2857v2.1091h-8.5715v4.2182h-4.2857v2.1091h-4.2857zm-4.2857-2.1091h4.2857v2.1091h-4.2857v-2.1091zm4.2857-4.2182h-4.2857v4.2182h-8.5714v4.2182h-4.2857v2.1091h-4.2858v-2.1091h-12.857l-1.8438e-7 -4.2182h4.2857v-2.1091h8.5714v-4.2182h4.2858v4.2182h4.2857v-4.2182h12.857v2.1091zm0 0h4.2857v2.1091h-4.2857v-2.1091zm-21.429 10.546v2.1091h-4.2857v2.1091h-4.2857v-2.1091h-4.2857l-9.22e-8 -2.1091h12.857zm30-2.1091v2.1091h-4.2857v-2.1091h4.2857zm-17.143 16.873v2.1091h-4.2857v-2.1091h4.2857zm0 0v-2.1091h4.2857v2.1091h-4.2857zm-21.429-25.309h4.2857v-2.1091h-4.2857v2.1091zm-4.2857-8.4363 1.8439e-7 4.2182 60-1e-4v-2.109h-12.857v-2.1091h-4.2858v-4.2182h12.857v4.2182h4.2857v-6.3273h-8.5714v-4.2182h-4.2857v-2.1091h-8.5715v2.1091h-4.2857v-6.3273h4.2857v2.1091h4.2857v-2.1091h4.2858v2.1091h4.2857v2.1091h4.2857v2.1091h4.2857v-2.1091h-4.2857v-8.4363h-8.5714v-2.1091h4.2857v-2.1091h-12.857v-2.1091h-4.2857v-2.1091h-8.5714v6.3273h-4.2857v-2.1091h-4.2857v2.1091h-4.2858v-4.2182h-4.2857v-2.1091h-4.2857v2.1091h-4.2857l9.219e-8 2.1091h4.2857v2.1091h4.2857v4.2181l4.2857 1e-4v2.109h-4.2857v-4.2181h-8.5714l2.7658e-7 6.3272h4.2857v-2.1091h4.2857v4.2182h-8.5714l9.22e-8 2.1091h4.2857v4.2182h8.5714v-2.1091h4.2858v4.2182h4.2857v-4.2182h4.2857v2.1091h12.857v-4.2182h4.2857v6.3273h-4.2857v6.3273h-4.2857v-2.1091h-8.5714v2.1091h-4.2857v-2.1091h-4.2857v-2.1091h-4.2858v-2.1091h-4.2857v4.2182h4.2857v2.1091h-8.5714v-2.1091h-4.2857zm17.143-18.982v-2.1091h-4.2858v2.1091h4.2858zm17.143-2.1091v-2.1091h-4.2857v-4.2182h4.2857v2.1091h4.2857v4.2182h-4.2857zm0 0v4.2181h-4.2857v-2.109h-4.2857v4.2181h-4.2857v-2.1091h-4.2857v-2.109l4.2857-1e-4v-2.109h12.857zm-12.857 6.3272h-8.5715v4.2182h12.857v-2.1091h-4.2857v-2.1091zm17.143-6.3272h8.5715v2.1091h-8.5715v-2.1091zm-12.857 18.982v-2.1091h4.2857v2.1091h-4.2857zm30-23.2h4.2857v-4.2182h-8.5714v2.1091h4.2857v2.1091zm-55.714-21.091 2.7658e-7 6.3272h4.2857v-2.1091h8.5714v-2.109h12.857v2.109h30v2.1091h4.2857v-4.2181h-30v-2.1091h-30zm-9.219e-8 -2.1091-9.219e-8 -2.1091h47.143v2.1091h12.857v2.1091h-17.143v-2.1091h-42.857zm-2.7657e-7 -6.3273 9.219e-8 2.1091 60-1e-5v-2.1091l-60 2.6227e-6zm60 16.873h-8.5714v-2.1091h-12.857v2.1091h-4.2857v2.1091h-12.857v-2.1091h-4.2857v-2.1091h-8.5715v2.1091h-8.5714l2.7657e-7 6.3273h60v-6.3273z" clip-rule="evenodd" fill="#313244" fill-rule="evenodd"/>
</svg>
